<?xml version="1.0" encoding="utf-8"?>
<!-- Generator: Adobe Illustrator 15.0.2, SVG Export Plug-In . SVG Version: 6.00 Build 0)  -->
<!DOCTYPE svg PUBLIC "-//W3C//DTD SVG 1.1//EN" "http://www.w3.org/Graphics/SVG/1.1/DTD/svg11.dtd">
<svg version="1.1" id="Layer_1" xmlns="http://www.w3.org/2000/svg" xmlns:xlink="http://www.w3.org/1999/xlink" x="0px" y="0px"
	 width="500px" height="500px" viewBox="0 0 500 500" enable-background="new 0 0 500 500" xml:space="preserve">
<linearGradient id="SVGID_1_" gradientUnits="userSpaceOnUse" x1="250.5396" y1="130.3257" x2="250.5395" y2="530.7971">
	<stop  offset="0" style="stop-color:#FF822E"/>
	<stop  offset="1" style="stop-color:#E74200"/>
</linearGradient>
<path fill="url(#SVGID_1_)" d="M476.928,250c0,125.035-101.36,226.386-226.391,226.386C125.512,476.386,24.152,375.035,24.152,250
	c0-125.035,101.359-226.385,226.385-226.385C375.567,23.615,476.928,124.965,476.928,250z"/>
<path fill="none" d="M408.398,116.509C377.855,152.567,359.386,199.15,359.386,250c0,50.846,18.47,97.434,49.013,133.491
	c30.542-36.058,49.016-82.646,49.016-133.491C457.414,199.15,438.94,152.567,408.398,116.509z"/>
<path fill="none" d="M380.47,89.176c-35.54-28.764-80.744-46.048-129.933-46.048c-49.184,0-94.387,17.284-129.932,46.052
	c37.406,43.152,60.119,99.363,60.119,160.82c0,61.453-22.713,117.668-60.119,160.82c35.545,28.768,80.749,46.052,129.932,46.052
	c49.188,0,94.393-17.284,129.933-46.048c-37.406-43.156-60.114-99.371-60.114-160.824
	C320.355,188.542,343.063,132.332,380.47,89.176z"/>
<path fill="none" d="M92.677,116.509C62.139,152.567,43.666,199.15,43.666,250c0,50.846,18.473,97.434,49.011,133.491
	c30.542-36.058,49.007-82.646,49.007-133.491C141.684,199.15,123.219,152.567,92.677,116.509z"/>
<path fill="#AA4817" d="M436.335,89.176c-8.583-9.886-17.901-19.114-27.937-27.529C365.654,25.762,310.593,4.093,250.537,4.093
	c-60.05,0-115.112,21.669-157.86,57.554C82.646,70.062,73.327,79.29,64.744,89.18C27.343,132.332,4.635,188.542,4.635,250
	c0,61.453,22.708,117.668,60.109,160.82c8.583,9.89,17.902,19.117,27.933,27.533c42.748,35.884,97.81,57.554,157.86,57.554
	c60.056,0,115.117-21.67,157.861-57.554c10.035-8.416,19.354-17.644,27.937-27.529c37.4-43.156,60.109-99.371,60.109-160.824
	C496.444,188.542,473.735,132.332,436.335,89.176z M92.677,116.509c26.585,31.387,44.014,70.763,48.086,113.973H44.596
	C48.663,187.272,66.087,147.896,92.677,116.509z M44.596,269.518h96.167c-4.072,43.211-21.501,82.586-48.086,113.974
	C66.087,352.104,48.663,312.729,44.596,269.518z M231.02,455.933c-41.586-3.917-79.631-20.199-110.415-45.112
	c33.407-38.531,55.04-87.503,59.302-141.303h51.113V455.933z M231.02,230.482h-51.113c-4.262-53.8-25.895-102.771-59.302-141.303
	c30.784-24.918,68.829-41.195,110.415-45.112V230.482z M456.483,230.482h-96.167c4.067-43.21,21.501-82.586,48.082-113.973
	C434.991,147.896,452.417,187.272,456.483,230.482z M270.059,44.067c41.587,3.917,79.633,20.194,110.411,45.108
	c-33.407,38.536-55.035,87.506-59.297,141.307h-51.114V44.067z M270.059,455.933V269.518h51.114
	c4.262,53.8,25.89,102.771,59.297,141.307C349.691,435.733,311.646,452.016,270.059,455.933z M408.398,383.491
	c-26.581-31.388-44.015-70.763-48.082-113.974h96.167C452.417,312.729,434.991,352.104,408.398,383.491z"/>
</svg>
